<svg xmlns:xlink="http://www.w3.org/1999/xlink" xmlns="http://www.w3.org/2000/svg" stroke-width="0.501" stroke-linejoin="bevel" fill-rule="evenodd" version="1.1" overflow="visible" viewBox="0 0 96 120" x="0px" y="0px"><g fill="none" stroke="black" font-family="Times New Roman" font-size="16" transform="scale(1 -1)"><g transform="translate(0 -96)"><g><path d="M 28.186,16.756 C 25.595,16.97 23.39,17.228 21.706,17.521 C 20.161,17.79 18.751,18.126 18.022,18.666 C 17.772,18.85 17.322,19.267 17.322,19.943 L 17.322,26.295 C 17.322,26.97 17.772,27.387 18.022,27.571 C 18.76,28.118 20.196,28.453 21.706,28.716 C 23.39,29.009 25.595,29.267 28.186,29.48 C 33.373,29.909 40.185,30.168 47.633,30.168 C 55.08,30.168 61.891,29.909 67.079,29.48 C 69.67,29.267 71.874,29.009 73.559,28.716 C 75.104,28.447 76.514,28.111 77.243,27.571 C 77.492,27.387 77.943,26.97 77.943,26.295 L 77.943,19.943 C 77.943,19.267 77.492,18.85 77.243,18.666 C 76.505,18.119 75.069,17.784 73.559,17.521 C 71.874,17.228 69.67,16.97 67.079,16.756 C 61.891,16.328 55.08,16.069 47.633,16.069 C 40.185,16.069 33.373,16.328 28.186,16.756 Z M 47.633,22.255 C 60.979,22.255 72.231,21.479 75.612,20.425 L 75.611,25.816 L 75.406,25.893 C 75.311,25.926 75.201,25.962 75.073,25.999 C 74.593,26.139 73.954,26.281 73.158,26.418 C 71.571,26.695 69.443,26.945 66.887,27.157 C 61.779,27.579 55.033,27.837 47.633,27.837 C 40.232,27.837 33.486,27.579 28.378,27.157 C 25.822,26.945 23.693,26.695 22.106,26.418 C 21.311,26.281 20.672,26.139 20.192,25.999 C 20.063,25.962 19.952,25.926 19.858,25.893 L 19.654,25.816 L 19.652,20.425 C 23.033,21.479 34.286,22.255 47.633,22.255 Z M 77.455,30.719 C 69.007,32.463 60.554,33.24 52.093,33.263 L 48.538,33.228 L 48.415,33.207 L 48,33.216 L 47.585,33.207 L 47.462,33.228 L 43.907,33.263 C 35.445,33.24 26.992,32.463 18.546,30.719 C 17.946,30.594 17.352,30.956 17.187,31.546 L 10.91,53.965 C 10.702,54.707 11.261,55.445 12.033,55.445 L 17.412,55.445 C 17.823,55.445 18.204,55.229 18.414,54.876 C 22.373,48.223 25.941,45.858 29.047,46.007 C 29.69,46.038 30.236,45.541 30.267,44.898 C 30.298,44.255 29.801,43.709 29.158,43.678 C 24.928,43.475 20.962,46.502 17.167,52.453 L 16.76,53.114 L 13.57,53.114 L 19.143,33.205 L 21.766,33.704 C 30.379,35.206 38.987,35.75 47.587,35.559 L 47.669,35.541 L 47.963,35.548 L 48.037,35.548 L 48.331,35.541 L 48.414,35.559 C 57.885,35.768 67.369,35.088 76.86,33.217 L 82.431,53.114 L 79.239,53.114 L 78.831,52.451 C 75.032,46.492 71.071,43.475 66.842,43.678 C 66.199,43.709 65.702,44.255 65.733,44.898 C 65.764,45.541 66.31,46.038 66.953,46.007 C 70.07,45.857 73.627,48.223 77.586,54.876 C 77.796,55.229 78.177,55.445 78.588,55.445 L 83.969,55.445 C 84.74,55.445 85.298,54.707 85.091,53.965 L 78.814,31.546 L 78.724,31.372 C 78.782,31.444 78.759,31.376 78.692,31.272 C 78.71,31.295 78.689,31.27 78.621,31.169 C 78.647,31.204 78.672,31.24 78.692,31.272 C 78.67,31.243 78.59,31.143 78.462,31.014 C 78.541,31.059 78.495,31.008 78.396,30.937 C 78.419,30.95 78.389,30.934 78.293,30.87 C 78.33,30.893 78.366,30.916 78.396,30.937 C 78.368,30.921 78.257,30.859 78.089,30.786 C 78.194,30.795 78.037,30.733 77.88,30.709 C 77.873,30.708 77.876,30.709 77.63,30.695 C 77.741,30.687 77.598,30.688 77.455,30.719 Z M 50.412,60.582 L 49.796,62.26 L 46.203,62.26 L 45.59,60.591 C 40.822,48.451 32.389,38.574 25.428,40.608 C 24.81,40.788 24.456,41.435 24.636,42.053 C 24.817,42.671 25.464,43.026 26.082,42.845 C 31.206,41.349 39.627,50.224 44.288,63.803 C 44.45,64.274 44.893,64.591 45.391,64.591 L 50.61,64.591 C 51.107,64.591 51.55,64.274 51.712,63.803 C 56.355,50.276 64.767,41.341 69.918,42.845 C 70.536,43.026 71.183,42.671 71.364,42.053 C 71.544,41.435 71.19,40.788 70.572,40.608 C 63.584,38.567 55.189,48.403 50.412,60.582 Z M 24.674,54.232 C 24.674,56.76 26.725,58.813 29.255,58.813 C 31.784,58.813 33.836,56.76 33.836,54.232 C 33.836,51.703 31.784,49.651 29.255,49.651 C 26.725,49.651 24.674,51.703 24.674,54.232 Z M 62.164,54.232 C 62.164,56.76 64.215,58.813 66.745,58.813 C 69.275,58.813 71.327,56.76 71.327,54.232 C 71.327,51.703 69.275,49.651 66.745,49.651 C 64.215,49.651 62.164,51.703 62.164,54.232 Z M 31.504,54.232 C 31.504,55.473 30.496,56.481 29.255,56.481 C 28.013,56.481 27.005,55.473 27.005,54.232 C 27.005,52.991 28.013,51.983 29.255,51.983 C 30.496,51.983 31.504,52.991 31.504,54.232 Z M 68.995,54.232 C 68.995,55.473 67.987,56.481 66.745,56.481 C 65.503,56.481 64.496,55.473 64.496,54.232 C 64.496,52.991 65.503,51.983 66.745,51.983 C 67.987,51.983 68.995,52.991 68.995,54.232 Z M 7.668,64.287 C 7.668,67.459 10.242,70.034 13.415,70.034 C 16.587,70.034 19.162,67.459 19.162,64.287 C 19.162,61.115 16.587,58.54 13.415,58.54 C 10.242,58.54 7.668,61.115 7.668,64.287 Z M 76.838,64.48 C 76.838,67.652 79.412,70.227 82.585,70.227 C 85.757,70.227 88.332,67.652 88.332,64.48 C 88.332,61.307 85.757,58.733 82.585,58.733 C 79.412,58.733 76.838,61.307 76.838,64.48 Z M 16.83,64.287 C 16.83,66.171 15.299,67.703 13.415,67.703 C 11.53,67.703 10,66.171 10,64.287 C 10,62.403 11.53,60.872 13.415,60.872 C 15.299,60.872 16.83,62.403 16.83,64.287 Z M 86,64.48 C 86,66.364 84.469,67.895 82.585,67.895 C 80.7,67.895 79.17,66.364 79.17,64.48 C 79.17,62.595 80.7,61.065 82.585,61.065 C 84.469,61.065 86,62.595 86,64.48 Z M 42.167,74.005 C 42.167,77.276 44.821,79.931 48.094,79.931 C 51.365,79.931 54.02,77.276 54.02,74.005 C 54.02,70.734 51.365,68.08 48.094,68.08 C 44.821,68.08 42.167,70.734 42.167,74.005 Z M 51.688,74.005 C 51.688,75.988 50.077,77.599 48.094,77.599 C 46.109,77.599 44.499,75.988 44.499,74.005 C 44.499,72.022 46.109,70.411 48.094,70.411 C 50.077,70.411 51.688,72.022 51.688,74.005 Z" fill="#e8e8e8" fill-rule="evenodd" stroke-width="0.389" stroke="none" marker-start="none" marker-end="none" stroke-miterlimit="79.8403193612775"/></g></g></g></svg>